<svg xmlns="http://www.w3.org/2000/svg" viewBox="0 0 810 540" role="img" aria-labelledby="title">
  <title>Flag of Europe</title>
  <rect width="810" height="540" fill="#003399"/>
  <g fill="#ffcc00" transform="translate(405 270)">
    <path d="M0-154 10.58-121.44 44.08-121.44 16.99-101.31 27.34-68.82 0-89.17-27.34-68.82-16.99-101.31-44.08-121.44-10.58-121.44Z"/>
    <path d="M77-133.37 87.58-100.81 121.08-100.81 93.99-80.68 104.34-48.19 77-68.54 49.66-48.19 60.01-80.68 32.92-100.81 66.42-100.81Z"/>
    <path d="M133.37-77 143.95-44.44 177.45-44.44 150.36-24.31 160.71 8.18 133.37-12.17 106.03 8.18 116.38-24.31 89.29-44.44 122.79-44.44Z"/>
    <path d="M154 0 164.58 32.56 198.08 32.56 170.99 52.69 181.34 85.18 154 64.83 126.66 85.18 137.01 52.69 109.92 32.56 143.42 32.56Z"/>
    <path d="M133.37 77 143.95 109.56 177.45 109.56 150.36 129.69 160.71 162.18 133.37 141.83 106.03 162.18 116.38 129.69 89.29 109.56 122.79 109.56Z"/>
    <path d="M77 133.37 87.58 165.93 121.08 165.93 93.99 186.06 104.34 218.55 77 198.2 49.66 218.55 60.01 186.06 32.92 165.93 66.42 165.93Z"/>
    <path d="M0 154 10.58 186.56 44.08 186.56 16.99 206.69 27.34 239.18 0 218.83-27.34 239.18-16.99 206.69-44.08 186.56-10.58 186.56Z"/>
    <path d="M-77 133.37-66.42 165.93-32.92 165.93-60.01 186.06-49.66 218.55-77 198.2-104.34 218.55-93.99 186.06-121.08 165.93-87.58 165.93Z"/>
    <path d="M-133.37 77-122.79 109.56-89.29 109.56-116.38 129.69-106.03 162.18-133.37 141.83-160.71 162.18-150.36 129.69-177.45 109.56-143.95 109.56Z"/>
    <path d="M-154 0-143.42 32.56-109.92 32.56-137.01 52.69-126.66 85.18-154 64.83-181.34 85.18-170.99 52.69-198.08 32.56-164.58 32.56Z"/>
    <path d="M-133.37-77-122.79-44.44-89.29-44.44-116.38-24.31-106.03 8.18-133.37-12.17-160.71 8.18-150.36-24.31-177.45-44.44-143.95-44.44Z"/>
    <path d="M-77-133.37-66.42-100.81-32.92-100.81-60.01-80.68-49.66-48.19-77-68.54-104.34-48.19-93.99-80.68-121.08-100.81-87.58-100.81Z"/>
  </g>
</svg>
